<svg width="464" height="94" viewBox="0 0 464 94" fill="none" xmlns="http://www.w3.org/2000/svg">
<path d="M48.3281 68.2656C48.3281 68.9531 48.3906 69.5156 48.5156 69.9531C48.6719 70.3906 48.8594 70.7031 49.0781 70.8906C49.3281 71.0469 49.6094 71.125 49.9219 71.125C50.2656 71.125 50.5938 71.0625 50.9062 70.9375C51.2188 70.8125 51.5469 70.6406 51.8906 70.4219C52.2656 70.1719 52.5625 69.9531 52.7812 69.7656C53.0312 69.5781 53.2812 69.3906 53.5312 69.2031C53.8125 68.9844 53.9688 68.8594 54 68.8281C53.9375 68.9219 53.7344 69.1875 53.3906 69.625C53.0469 70.0625 52.7812 70.3906 52.5938 70.6094C52.4375 70.7969 52.1562 71.0781 51.75 71.4531C51.375 71.8281 51.0156 72.1094 50.6719 72.2969C50.3594 72.4531 49.9531 72.6094 49.4531 72.7656C48.9531 72.9219 48.4375 73 47.9062 73C46.5312 73 45.4062 72.5781 44.5312 71.7344C43.6562 70.8906 43.2188 69.2812 43.2188 66.9062C43.2188 62.6562 43.25 55.9688 43.3125 46.8438C42.7188 48.7812 41.9219 50.7188 40.9219 52.6562C39.0469 56.2812 36.5781 59.5938 33.5156 62.5938C30.4844 65.5938 27.1406 68.0156 23.4844 69.8594C21.7344 70.7344 19.8906 71.4531 17.9531 72.0156C16.0469 72.5469 14.0625 72.875 12 73C9.9375 73.1562 8.03125 72.8125 6.28125 71.9688C4.53125 71.0938 3.17188 69.7188 2.20312 67.8438C1.48438 66.4375 1.07812 64.9688 0.984375 63.4375C0.890625 61.9062 1.09375 60.4375 1.59375 59.0312C2.09375 57.5938 2.71875 56.2188 3.46875 54.9062C4.21875 53.5625 5.14062 52.25 6.23438 50.9688C7.35938 49.6562 8.40625 48.5312 9.375 47.5938C10.3438 46.625 11.3906 45.6719 12.5156 44.7344C16.7969 41.1094 20.7344 38.3906 24.3281 36.5781C25.6719 35.8906 26.6406 35.4062 27.2344 35.125C27.8594 34.8438 28.7344 34.5781 29.8594 34.3281C30.9844 34.0781 32.0781 34.0312 33.1406 34.1875C32.2031 34.125 31.1094 34.3281 29.8594 34.7969C28.6094 35.2656 27.7031 35.6719 27.1406 36.0156C26.6094 36.3594 25.6406 36.9844 24.2344 37.8906C22.0156 39.3281 20.2344 40.6094 18.8906 41.7344C15.7969 44.2656 12.9531 47.1719 10.3594 50.4531C9.39062 51.6719 8.5625 52.9375 7.875 54.25C7.1875 55.5625 6.625 56.9375 6.1875 58.375C5.75 59.8125 5.60938 61.2656 5.76562 62.7344C5.95312 64.1719 6.46875 65.4844 7.3125 66.6719C8.5 68.3594 9.98438 69.5312 11.7656 70.1875C13.5469 70.8125 15.3438 70.9844 17.1562 70.7031C19 70.3906 20.8906 69.8125 22.8281 68.9688C24.7656 68.0938 26.5 67.125 28.0312 66.0625C29.5938 65 30.9688 63.9062 32.1562 62.7812C37.4062 57.75 40.8281 51.9688 42.4219 45.4375C42.7969 43.9062 43.0938 42.1562 43.3125 40.1875C43.3125 38.4688 43.2656 37 43.1719 35.7812C43.1094 34.5625 42.9688 33.2188 42.75 31.75C42.5625 30.2812 42.25 29.0625 41.8125 28.0938C41.4062 27.0938 40.8594 26.1562 40.1719 25.2812C39.5156 24.4062 38.6562 23.7656 37.5938 23.3594C36.5625 22.9219 35.3438 22.7031 33.9375 22.7031C30.7812 22.7031 28.1562 23.6094 26.0625 25.4219C23.9688 27.2031 22.125 30.0469 20.5312 33.9531L21.2812 26.9219C23.625 24.8281 25.7188 23.3594 27.5625 22.5156C29.4375 21.6719 31.7344 21.3125 34.4531 21.4375C36.6719 21.5312 38.6406 22.0469 40.3594 22.9844C42.0781 23.9219 43.4375 25.0781 44.4375 26.4531C45.4375 27.8281 46.25 29.4531 46.875 31.3281C47.5 33.2031 47.9219 34.9844 48.1406 36.6719C48.3594 38.3281 48.4688 40.0469 48.4688 41.8281C48.375 57.7344 48.3281 66.5469 48.3281 68.2656ZM86.3438 21.4375C91.3125 21.2187 95.8125 22.2812 99.8438 24.625C103.906 26.9688 107.031 30.1406 109.219 34.1406C111.438 38.1406 112.547 42.5 112.547 47.2188C112.547 51.875 111.375 56.1875 109.031 60.1562C106.688 64.0938 103.5 67.2188 99.4688 69.5312C95.4375 71.8438 91.0625 73 86.3438 73C82.125 73 78.5625 72.3281 75.6562 70.9844C72.7812 69.6406 70.1719 67.3125 67.8281 64V90.3906C67.8281 90.9219 67.9844 91.375 68.2969 91.75C68.6406 92.1562 69.0625 92.4219 69.5625 92.5469L73.6875 93.4844H56.8594L60.9375 92.5469C61.4688 92.4219 61.8906 92.1562 62.2031 91.75C62.5469 91.3438 62.7188 90.8906 62.7188 90.3906V24.4844C62.7188 23.9844 62.5469 23.5313 62.2031 23.125C61.8906 22.7187 61.4688 22.4531 60.9375 22.3281L56.8594 21.4375H73.6875L69.5625 22.3281C69.0625 22.4531 68.6406 22.7187 68.2969 23.125C67.9844 23.5 67.8281 23.9531 67.8281 24.4844V37.2344C69.8906 32.8906 72.7031 29.2188 76.2656 26.2188C79.8281 23.1875 83.1875 21.5937 86.3438 21.4375ZM86.3906 71.7344C90.1719 71.7344 93.6719 70.6406 96.8906 68.4531C100.141 66.2656 102.703 63.2969 104.578 59.5469C106.453 55.7656 107.391 51.6562 107.391 47.2188C107.391 43.8125 106.906 40.5781 105.938 37.5156C105 34.4219 103.656 31.7188 101.906 29.4062C100.188 27.0938 97.9688 25.3281 95.25 24.1094C92.5625 22.8594 89.6094 22.3906 86.3906 22.7031C84.1719 22.8906 81.6875 24 78.9375 26.0312C76.1875 28.0625 73.5469 30.9531 71.0156 34.7031C68.8906 37.8281 67.8281 41.3438 67.8281 45.25V52.6562C67.8281 56.0312 68.625 59.1875 70.2188 62.125C71.8438 65.0312 74.0625 67.3594 76.875 69.1094C79.7188 70.8281 82.8125 71.7031 86.1562 71.7344H86.3906ZM143.812 21.4375C148.781 21.2187 153.281 22.2812 157.312 24.625C161.375 26.9688 164.5 30.1406 166.688 34.1406C168.906 38.1406 170.016 42.5 170.016 47.2188C170.016 51.875 168.844 56.1875 166.5 60.1562C164.156 64.0938 160.969 67.2188 156.938 69.5312C152.906 71.8438 148.531 73 143.812 73C139.594 73 136.031 72.3281 133.125 70.9844C130.25 69.6406 127.641 67.3125 125.297 64V90.3906C125.297 90.9219 125.453 91.375 125.766 91.75C126.109 92.1562 126.531 92.4219 127.031 92.5469L131.156 93.4844H114.328L118.406 92.5469C118.938 92.4219 119.359 92.1562 119.672 91.75C120.016 91.3438 120.188 90.8906 120.188 90.3906V24.4844C120.188 23.9844 120.016 23.5313 119.672 23.125C119.359 22.7187 118.938 22.4531 118.406 22.3281L114.328 21.4375H131.156L127.031 22.3281C126.531 22.4531 126.109 22.7187 125.766 23.125C125.453 23.5 125.297 23.9531 125.297 24.4844V37.2344C127.359 32.8906 130.172 29.2188 133.734 26.2188C137.297 23.1875 140.656 21.5937 143.812 21.4375ZM143.859 71.7344C147.641 71.7344 151.141 70.6406 154.359 68.4531C157.609 66.2656 160.172 63.2969 162.047 59.5469C163.922 55.7656 164.859 51.6562 164.859 47.2188C164.859 43.8125 164.375 40.5781 163.406 37.5156C162.469 34.4219 161.125 31.7188 159.375 29.4062C157.656 27.0938 155.438 25.3281 152.719 24.1094C150.031 22.8594 147.078 22.3906 143.859 22.7031C141.641 22.8906 139.156 24 136.406 26.0312C133.656 28.0625 131.016 30.9531 128.484 34.7031C126.359 37.8281 125.297 41.3438 125.297 45.25V52.6562C125.297 56.0312 126.094 59.1875 127.688 62.125C129.312 65.0312 131.531 67.3594 134.344 69.1094C137.188 70.8281 140.281 71.7031 143.625 71.7344H143.859ZM187.734 24.9062C191.766 22.5938 196.141 21.4375 200.859 21.4375C205.578 21.4375 209.953 22.5938 213.984 24.9062C218.016 27.2188 221.203 30.3594 223.547 34.3281C225.891 38.2656 227.062 42.5625 227.062 47.2188C227.062 51.875 225.891 56.1875 223.547 60.1562C221.203 64.0938 218.016 67.2188 213.984 69.5312C209.953 71.8438 205.578 73 200.859 73C196.141 73 191.766 71.8438 187.734 69.5312C183.703 67.2188 180.516 64.0938 178.172 60.1562C175.859 56.1875 174.703 51.875 174.703 47.2188C174.703 42.5625 175.859 38.2656 178.172 34.3281C180.516 30.3594 183.703 27.2188 187.734 24.9062ZM190.312 68.4531C193.562 70.6406 197.078 71.7344 200.859 71.7344C204.641 71.7344 208.141 70.6406 211.359 68.4531C214.609 66.2656 217.172 63.2969 219.047 59.5469C220.953 55.7656 221.906 51.6562 221.906 47.2188C221.906 42.7812 220.953 38.6875 219.047 34.9375C217.172 31.1562 214.609 28.1719 211.359 25.9844C208.141 23.7969 204.641 22.7031 200.859 22.7031C197.078 22.7031 193.562 23.7969 190.312 25.9844C187.094 28.1719 184.531 31.1562 182.625 34.9375C180.75 38.6875 179.812 42.7812 179.812 47.2188C179.812 51.6562 180.75 55.7656 182.625 59.5469C184.531 63.2969 187.094 66.2656 190.312 68.4531ZM258.562 21.2969C263.281 21.2969 267.656 22.4531 271.688 24.7656C275.719 27.0781 278.906 30.2188 281.25 34.1875C283.594 38.125 284.766 42.4219 284.766 47.0781C284.766 51.7969 283.656 56.1562 281.438 60.1562C279.25 64.1562 276.125 67.3281 272.062 69.6719C268.031 72.0156 263.531 73.0781 258.562 72.8594C255.406 72.7031 252.047 71.125 248.484 68.125C244.922 65.0938 242.109 61.4062 240.047 57.0625V69.8125C240.047 70.3438 240.203 70.8125 240.516 71.2188C240.859 71.5938 241.281 71.8438 241.781 71.9688L245.906 72.8594H229.078L233.156 71.9688C233.688 71.8438 234.109 71.5781 234.422 71.1719C234.766 70.7656 234.938 70.3125 234.938 69.8125V3.90625C234.938 3.375 234.766 2.90625 234.422 2.5C234.078 2.09375 233.656 1.82813 233.156 1.70312L229.078 0.8125H245.906L241.781 1.70312C241.281 1.82813 240.859 2.09375 240.516 2.5C240.203 2.90625 240.047 3.375 240.047 3.90625V30.2969C242.391 26.9844 245 24.6563 247.875 23.3125C250.781 21.9687 254.344 21.2969 258.562 21.2969ZM258.609 71.5469C261.828 71.8594 264.781 71.4062 267.469 70.1875C270.188 68.9688 272.406 67.2031 274.125 64.8906C275.875 62.5469 277.219 59.8438 278.156 56.7812C279.125 53.7188 279.609 50.4844 279.609 47.0781C279.609 42.6406 278.672 38.5469 276.797 34.7969C274.922 31.0156 272.359 28.0312 269.109 25.8438C265.891 23.6562 262.391 22.5625 258.609 22.5625H258.375C255.031 22.5938 251.938 23.4844 249.094 25.2344C246.281 26.9531 244.062 29.2812 242.438 32.2188C240.844 35.125 240.047 38.2656 240.047 41.6406V49.0469C240.047 52.9531 241.109 56.4688 243.234 59.5938C245.766 63.3438 248.391 66.2188 251.109 68.2188C253.859 70.2188 256.359 71.3281 258.609 71.5469ZM302.484 24.9062C306.516 22.5938 310.891 21.4375 315.609 21.4375C320.328 21.4375 324.703 22.5938 328.734 24.9062C332.766 27.2188 335.953 30.3594 338.297 34.3281C340.641 38.2656 341.812 42.5625 341.812 47.2188C341.812 51.875 340.641 56.1875 338.297 60.1562C335.953 64.0938 332.766 67.2188 328.734 69.5312C324.703 71.8438 320.328 73 315.609 73C310.891 73 306.516 71.8438 302.484 69.5312C298.453 67.2188 295.266 64.0938 292.922 60.1562C290.609 56.1875 289.453 51.875 289.453 47.2188C289.453 42.5625 290.609 38.2656 292.922 34.3281C295.266 30.3594 298.453 27.2188 302.484 24.9062ZM305.062 68.4531C308.312 70.6406 311.828 71.7344 315.609 71.7344C319.391 71.7344 322.891 70.6406 326.109 68.4531C329.359 66.2656 331.922 63.2969 333.797 59.5469C335.703 55.7656 336.656 51.6562 336.656 47.2188C336.656 42.7812 335.703 38.6875 333.797 34.9375C331.922 31.1562 329.359 28.1719 326.109 25.9844C322.891 23.7969 319.391 22.7031 315.609 22.7031C311.828 22.7031 308.312 23.7969 305.062 25.9844C301.844 28.1719 299.281 31.1562 297.375 34.9375C295.5 38.6875 294.562 42.7812 294.562 47.2188C294.562 51.6562 295.5 55.7656 297.375 59.5469C299.281 63.2969 301.844 66.2656 305.062 68.4531ZM359.766 24.9062C363.797 22.5938 368.172 21.4375 372.891 21.4375C377.609 21.4375 381.984 22.5938 386.016 24.9062C390.047 27.2188 393.234 30.3594 395.578 34.3281C397.922 38.2656 399.094 42.5625 399.094 47.2188C399.094 51.875 397.922 56.1875 395.578 60.1562C393.234 64.0938 390.047 67.2188 386.016 69.5312C381.984 71.8438 377.609 73 372.891 73C368.172 73 363.797 71.8438 359.766 69.5312C355.734 67.2188 352.547 64.0938 350.203 60.1562C347.891 56.1875 346.734 51.875 346.734 47.2188C346.734 42.5625 347.891 38.2656 350.203 34.3281C352.547 30.3594 355.734 27.2188 359.766 24.9062ZM362.344 68.4531C365.594 70.6406 369.109 71.7344 372.891 71.7344C376.672 71.7344 380.172 70.6406 383.391 68.4531C386.641 66.2656 389.203 63.2969 391.078 59.5469C392.984 55.7656 393.938 51.6562 393.938 47.2188C393.938 42.7812 392.984 38.6875 391.078 34.9375C389.203 31.1562 386.641 28.1719 383.391 25.9844C380.172 23.7969 376.672 22.7031 372.891 22.7031C369.109 22.7031 365.594 23.7969 362.344 25.9844C359.125 28.1719 356.562 31.1562 354.656 34.9375C352.781 38.6875 351.844 42.7812 351.844 47.2188C351.844 51.6562 352.781 55.7656 354.656 59.5469C356.562 63.2969 359.125 66.2656 362.344 68.4531ZM447.422 68.125C448.453 69.125 449.578 69.9062 450.797 70.4688C452.047 71.0312 453.406 71.3594 454.875 71.4531C456.344 71.5469 457.656 71.5625 458.812 71.5C459.969 71.4375 461.391 71.2812 463.078 71.0312C456.703 72.875 451.562 73.375 447.656 72.5312C443.969 71.75 441.078 69.4375 438.984 65.5938C438.547 64.8125 437.984 63.7188 437.297 62.3125C436.641 60.9062 436 59.625 435.375 58.4688C434.75 57.3125 434.078 56.2812 433.359 55.375C433.203 55.1562 432.938 54.8594 432.562 54.4844C431.188 53.1094 429.484 52.3125 427.453 52.0938C425.453 51.8438 423.594 52.1875 421.875 53.125C417.625 55.3125 414.359 56.7969 412.078 57.5781V69.8125C412.078 70.3438 412.234 70.8125 412.547 71.2188C412.891 71.5938 413.312 71.8438 413.812 71.9688L417.938 72.8594H401.109L405.188 71.9688C405.719 71.8438 406.141 71.5781 406.453 71.1719C406.797 70.7656 406.969 70.3125 406.969 69.8125V58.8906C404.938 59.2344 403.219 59.3438 401.812 59.2188L402.75 58.8438C402.844 58.8125 402.906 58.7969 402.938 58.7969C404.219 58.7969 405.562 58.6719 406.969 58.4219V3.90625C406.969 3.40625 406.797 2.95313 406.453 2.54688C406.141 2.14062 405.719 1.875 405.188 1.75L401.109 0.8125H417.938L413.812 1.75C413.312 1.875 412.891 2.14062 412.547 2.54688C412.234 2.92188 412.078 3.375 412.078 3.90625V51.0156C415.047 44.6719 418.125 39.125 421.312 34.375C423.969 30.4375 426.312 27.5625 428.344 25.75C430.812 23.5313 433.422 22.1719 436.172 21.6719C438.109 21.3281 439.953 21.3594 441.703 21.7656C443.484 22.1719 444.859 23.0625 445.828 24.4375C447.672 27.0625 447.578 30.4375 445.547 34.5625C443.859 37.875 440.781 41.1719 436.312 44.4531C432.969 46.9219 429.25 49.2344 425.156 51.3906C426.625 51.1094 428.156 51 429.75 51.0625C434 51.25 437.391 53.1406 439.922 56.7344C440.297 57.2969 441.312 59.0312 442.969 61.9375C444.656 64.8125 446.141 66.875 447.422 68.125ZM417.094 54.5781C420.812 52.7656 424.5 50.625 428.156 48.1562C429.875 47 431.328 45.9688 432.516 45.0625C433.703 44.1562 434.969 43.0625 436.312 41.7812C437.688 40.5 438.812 39.1406 439.688 37.7031C440.562 36.2344 441.203 34.7031 441.609 33.1094C442.453 29.7031 441.969 27.0938 440.156 25.2812C439.375 24.4688 438.438 23.9688 437.344 23.7812C436.281 23.5625 435.25 23.5938 434.25 23.875C433.25 24.125 432.266 24.5625 431.297 25.1875C428.797 26.8125 426.609 28.7969 424.734 31.1406C422.891 33.4844 420.953 36.3594 418.922 39.7656C417.422 42.2656 415.141 46.4688 412.078 52.375V56.8281C413.641 56.2344 415.312 55.4844 417.094 54.5781Z" fill="black"/>
</svg>
